<svg width="367" height="134" viewBox="0 0 367 134" fill="none" xmlns="http://www.w3.org/2000/svg">
<path d="M62.2653 3.5H58.7653V7V16.5189H35.9916H32.4916V20.0189V30.1038H7H3.5V33.6038V97V100.5H7H32.4916V112.283V115.783H35.9916H58.7653V127V130.5H62.2653H301.446H304.946V127V115.783H328.626H332.126V112.283V100.5H359.429H362.929V97V33.6038V30.1038H359.429H332.126V20.0189V16.5189H328.626H304.946V7V3.5H301.446H62.2653Z" fill="#8E32B3" stroke="#332536" stroke-width="7"/>
<path d="M90.8753 51.7778H92.3568V53.2593H90.8753V51.7778ZM92.3568 51.7778H93.8383V53.2593H92.3568V51.7778ZM93.8383 51.7778H95.3197V53.2593H93.8383V51.7778ZM95.3197 51.7778H96.8012V53.2593H95.3197V51.7778ZM96.8012 51.7778H98.2827V53.2593H96.8012V51.7778ZM98.2827 51.7778H99.7642V53.2593H98.2827V51.7778ZM99.7642 51.7778H101.246V53.2593H99.7642V51.7778ZM101.246 51.7778H102.727V53.2593H101.246V51.7778ZM101.246 53.2593H102.727V54.7407H101.246V53.2593ZM102.727 53.2593H104.209V54.7407H102.727V53.2593ZM99.7642 53.2593H101.246V54.7407H99.7642V53.2593ZM98.2827 53.2593H99.7642V54.7407H98.2827V53.2593ZM96.8012 53.2593H98.2827V54.7407H96.8012V53.2593ZM95.3197 53.2593H96.8012V54.7407H95.3197V53.2593ZM93.8383 53.2593H95.3197V54.7407H93.8383V53.2593ZM92.3568 53.2593H93.8383V54.7407H92.3568V53.2593ZM90.8753 53.2593H92.3568V54.7407H90.8753V53.2593ZM90.8753 54.7407H92.3568V56.2222H90.8753V54.7407ZM92.3568 54.7407H93.8383V56.2222H92.3568V54.7407ZM93.8383 54.7407H95.3197V56.2222H93.8383V54.7407ZM95.3197 54.7407H96.8012V56.2222H95.3197V54.7407ZM98.2827 54.7407H99.7642V56.2222H98.2827V54.7407ZM99.7642 54.7407H101.246V56.2222H99.7642V54.7407ZM101.246 54.7407H102.727V56.2222H101.246V54.7407ZM102.727 54.7407H104.209V56.2222H102.727V54.7407ZM104.209 54.7407H105.69V56.2222H104.209V54.7407ZM96.8012 54.7407H98.2827V56.2222H96.8012V54.7407ZM99.7642 56.2222H101.246V57.7037H99.7642V56.2222ZM101.246 56.2222H102.727V57.7037H101.246V56.2222ZM104.209 56.2222H105.69V57.7037H104.209V56.2222ZM102.727 56.2222H104.209V57.7037H102.727V56.2222ZM102.727 57.7037H104.209V59.1852H102.727V57.7037ZM102.727 60.6667H104.209V62.1481H102.727V60.6667ZM104.209 60.6667H105.69V62.1481H104.209V60.6667ZM104.209 62.1481H105.69V63.6296H104.209V62.1481ZM104.209 57.7037H105.69V59.1852H104.209V57.7037ZM101.246 60.6667H102.727V62.1481H101.246V60.6667ZM101.246 57.7037H102.727V59.1852H101.246V57.7037ZM99.7642 60.6667H101.246V62.1481H99.7642V60.6667ZM101.246 62.1481H102.727V63.6296H101.246V62.1481ZM102.727 62.1481H104.209V63.6296H102.727V62.1481ZM102.727 63.6296H104.209V65.1111H102.727V63.6296ZM99.7642 65.1111H101.246V66.5926H99.7642V65.1111ZM101.246 65.1111H102.727V66.5926H101.246V65.1111ZM101.246 63.6296H102.727V65.1111H101.246V63.6296ZM99.7642 63.6296H101.246V65.1111H99.7642V63.6296ZM99.7642 62.1481H101.246V63.6296H99.7642V62.1481ZM98.2827 65.1111H99.7642V66.5926H98.2827V65.1111ZM96.8012 65.1111H98.2827V66.5926H96.8012V65.1111ZM95.3197 65.1111H96.8012V66.5926H95.3197V65.1111ZM95.3197 63.6296H96.8012V65.1111H95.3197V63.6296ZM96.8012 63.6296H98.2827V65.1111H96.8012V63.6296ZM96.8012 62.1481H98.2827V63.6296H96.8012V62.1481ZM98.2827 62.1481H99.7642V63.6296H98.2827V62.1481ZM95.3197 62.1481H96.8012V63.6296H95.3197V62.1481ZM98.2827 63.6296H99.7642V65.1111H98.2827V63.6296ZM92.3568 56.2222H93.8383V57.7037H92.3568V56.2222ZM93.8383 56.2222H95.3197V57.7037H93.8383V56.2222ZM93.8383 57.7037H95.3197V59.1852H93.8383V57.7037ZM93.8383 59.1852H95.3197V60.6667H93.8383V59.1852ZM93.8383 60.6667H95.3197V62.1481H93.8383V60.6667ZM92.3568 60.6667H93.8383V62.1481H92.3568V60.6667ZM90.8753 60.6667H92.3568V62.1481H90.8753V60.6667ZM90.8753 59.1852H92.3568V60.6667H90.8753V59.1852ZM90.8753 57.7037H92.3568V59.1852H90.8753V57.7037ZM90.8753 56.2222H92.3568V57.7037H90.8753V56.2222ZM92.3568 59.1852H93.8383V60.6667H92.3568V59.1852ZM92.3568 62.1481H93.8383V63.6296H92.3568V62.1481ZM92.3568 57.7037H93.8383V59.1852H92.3568V57.7037ZM90.8753 62.1481H92.3568V63.6296H90.8753V62.1481ZM90.8753 63.6296H92.3568V65.1111H90.8753V63.6296ZM92.3568 63.6296H93.8383V65.1111H92.3568V63.6296ZM93.8383 62.1481H95.3197V63.6296H93.8383V62.1481ZM93.8383 63.6296H95.3197V65.1111H93.8383V63.6296ZM93.8383 65.1111H95.3197V66.5926H93.8383V65.1111ZM93.8383 66.5926H95.3197V68.0741H93.8383V66.5926ZM93.8383 68.0741H95.3197V69.5556H93.8383V68.0741ZM93.8383 69.5556H95.3197V71.037H93.8383V69.5556ZM93.8383 72.5185H95.3197V74H93.8383V72.5185ZM92.3568 72.5185H93.8383V74H92.3568V72.5185ZM90.8753 72.5185H92.3568V74H90.8753V72.5185ZM90.8753 71.037H92.3568V72.5185H90.8753V71.037ZM90.8753 69.5556H92.3568V71.037H90.8753V69.5556ZM90.8753 68.0741H92.3568V69.5556H90.8753V68.0741ZM90.8753 66.5926H92.3568V68.0741H90.8753V66.5926ZM90.8753 65.1111H92.3568V66.5926H90.8753V65.1111ZM92.3568 65.1111H93.8383V66.5926H92.3568V65.1111ZM92.3568 66.5926H93.8383V68.0741H92.3568V66.5926ZM92.3568 68.0741H93.8383V69.5556H92.3568V68.0741ZM92.3568 69.5556H93.8383V71.037H92.3568V69.5556ZM92.3568 71.037H93.8383V72.5185H92.3568V71.037ZM93.8383 71.037H95.3197V72.5185H93.8383V71.037ZM104.209 59.1852H105.69V60.6667H104.209V59.1852ZM102.727 59.1852H104.209V60.6667H102.727V59.1852ZM101.246 59.1852H102.727V60.6667H101.246V59.1852ZM108.649 51.7778H110.13V53.2593H108.649V51.7778ZM110.13 51.7778H111.612V53.2593H110.13V51.7778ZM111.612 51.7778H113.093V53.2593H111.612V51.7778ZM113.093 51.7778H114.575V53.2593H113.093V51.7778ZM114.575 51.7778H116.056V53.2593H114.575V51.7778ZM116.056 51.7778H117.538V53.2593H116.056V51.7778ZM117.538 51.7778H119.019V53.2593H117.538V51.7778ZM119.019 51.7778H120.501V53.2593H119.019V51.7778ZM119.019 53.2593H120.501V54.7407H119.019V53.2593ZM120.501 53.2593H121.982V54.7407H120.501V53.2593ZM117.538 53.2593H119.019V54.7407H117.538V53.2593ZM116.056 53.2593H117.538V54.7407H116.056V53.2593ZM114.575 53.2593H116.056V54.7407H114.575V53.2593ZM113.093 53.2593H114.575V54.7407H113.093V53.2593ZM111.612 53.2593H113.093V54.7407H111.612V53.2593ZM110.13 53.2593H111.612V54.7407H110.13V53.2593ZM108.649 53.2593H110.13V54.7407H108.649V53.2593ZM108.649 54.7407H110.13V56.2222H108.649V54.7407ZM110.13 54.7407H111.612V56.2222H110.13V54.7407ZM111.612 54.7407H113.093V56.2222H111.612V54.7407ZM113.093 54.7407H114.575V56.2222H113.093V54.7407ZM116.056 54.7407H117.538V56.2222H116.056V54.7407ZM117.538 54.7407H119.019V56.2222H117.538V54.7407ZM119.019 54.7407H120.501V56.2222H119.019V54.7407ZM120.501 54.7407H121.982V56.2222H120.501V54.7407ZM121.982 54.7407H123.464V56.2222H121.982V54.7407ZM114.575 54.7407H116.056V56.2222H114.575V54.7407ZM117.538 56.2222H119.019V57.7037H117.538V56.2222ZM119.019 56.2222H120.501V57.7037H119.019V56.2222ZM121.982 56.2222H123.464V57.7037H121.982V56.2222ZM120.501 56.2222H121.982V57.7037H120.501V56.2222ZM120.501 57.7037H121.982V59.1852H120.501V57.7037ZM120.501 60.6667H121.982V62.1481H120.501V60.6667ZM121.982 60.6667H123.464V62.1481H121.982V60.6667ZM121.982 62.1481H123.464V63.6296H121.982V62.1481ZM121.982 57.7037H123.464V59.1852H121.982V57.7037ZM119.019 60.6667H120.501V62.1481H119.019V60.6667ZM119.019 57.7037H120.501V59.1852H119.019V57.7037ZM117.538 60.6667H119.019V62.1481H117.538V60.6667ZM119.019 62.1481H120.501V63.6296H119.019V62.1481ZM120.501 62.1481H121.982V63.6296H120.501V62.1481ZM120.501 63.6296H121.982V65.1111H120.501V63.6296ZM117.538 65.1111H119.019V66.5926H117.538V65.1111ZM119.019 65.1111H120.501V66.5926H119.019V65.1111ZM119.019 63.6296H120.501V65.1111H119.019V63.6296ZM117.538 63.6296H119.019V65.1111H117.538V63.6296ZM117.538 62.1481H119.019V63.6296H117.538V62.1481ZM116.056 65.1111H117.538V66.5926H116.056V65.1111ZM114.575 65.1111H116.056V66.5926H114.575V65.1111ZM113.093 65.1111H114.575V66.5926H113.093V65.1111ZM113.093 63.6296H114.575V65.1111H113.093V63.6296ZM114.575 63.6296H116.056V65.1111H114.575V63.6296ZM114.575 62.1481H116.056V63.6296H114.575V62.1481ZM116.056 62.1481H117.538V63.6296H116.056V62.1481ZM113.093 62.1481H114.575V63.6296H113.093V62.1481ZM116.056 63.6296H117.538V65.1111H116.056V63.6296ZM110.13 56.2222H111.612V57.7037H110.13V56.2222ZM111.612 56.2222H113.093V57.7037H111.612V56.2222ZM111.612 57.7037H113.093V59.1852H111.612V57.7037ZM111.612 59.1852H113.093V60.6667H111.612V59.1852ZM111.612 60.6667H113.093V62.1481H111.612V60.6667ZM110.13 60.6667H111.612V62.1481H110.13V60.6667ZM108.649 60.6667H110.13V62.1481H108.649V60.6667ZM108.649 59.1852H110.13V60.6667H108.649V59.1852ZM108.649 57.7037H110.13V59.1852H108.649V57.7037ZM108.649 56.2222H110.13V57.7037H108.649V56.2222ZM110.13 59.1852H111.612V60.6667H110.13V59.1852ZM110.13 62.1481H111.612V63.6296H110.13V62.1481ZM110.13 57.7037H111.612V59.1852H110.13V57.7037ZM108.649 62.1481H110.13V63.6296H108.649V62.1481ZM108.649 63.6296H110.13V65.1111H108.649V63.6296ZM110.13 63.6296H111.612V65.1111H110.13V63.6296ZM111.612 62.1481H113.093V63.6296H111.612V62.1481ZM111.612 63.6296H113.093V65.1111H111.612V63.6296ZM111.612 65.1111H113.093V66.5926H111.612V65.1111ZM111.612 66.5926H113.093V68.0741H111.612V66.5926ZM111.612 68.0741H113.093V69.5556H111.612V68.0741ZM111.612 69.5556H113.093V71.037H111.612V69.5556ZM111.612 72.5185H113.093V74H111.612V72.5185ZM110.13 72.5185H111.612V74H110.13V72.5185ZM108.649 72.5185H110.13V74H108.649V72.5185ZM108.649 71.037H110.13V72.5185H108.649V71.037ZM108.649 69.5556H110.13V71.037H108.649V69.5556ZM108.649 68.0741H110.13V69.5556H108.649V68.0741ZM108.649 66.5926H110.13V68.0741H108.649V66.5926ZM108.649 65.1111H110.13V66.5926H108.649V65.1111ZM110.13 65.1111H111.612V66.5926H110.13V65.1111ZM110.13 66.5926H111.612V68.0741H110.13V66.5926ZM110.13 68.0741H111.612V69.5556H110.13V68.0741ZM110.13 69.5556H111.612V71.037H110.13V69.5556ZM110.13 71.037H111.612V72.5185H110.13V71.037ZM111.612 71.037H113.093V72.5185H111.612V71.037ZM121.982 59.1852H123.464V60.6667H121.982V59.1852ZM120.501 59.1852H121.982V60.6667H120.501V59.1852ZM119.019 59.1852H120.501V60.6667H119.019V59.1852ZM121.982 72.5185H123.464V74H121.982V72.5185ZM121.982 71.037H123.464V72.5185H121.982V71.037ZM121.982 69.5556H123.464V71.037H121.982V69.5556ZM120.501 69.5556H121.982V71.037H120.501V69.5556ZM119.019 69.5556H120.501V71.037H119.019V69.5556ZM119.019 71.037H120.501V72.5185H119.019V71.037ZM119.019 72.5185H120.501V74H119.019V72.5185ZM120.501 72.5185H121.982V74H120.501V72.5185ZM120.501 71.037H121.982V72.5185H120.501V71.037ZM119.019 68.0741H120.501V69.5556H119.019V68.0741ZM119.019 66.5926H120.501V68.0741H119.019V66.5926ZM117.538 66.5926H119.019V68.0741H117.538V66.5926ZM121.982 68.0741H123.464V69.5556H121.982V68.0741ZM121.982 66.5926H123.464V68.0741H121.982V66.5926ZM120.501 68.0741H121.982V69.5556H120.501V68.0741ZM120.501 66.5926H121.982V68.0741H120.501V66.5926ZM120.501 65.1111H121.982V66.5926H120.501V65.1111ZM127.904 51.7778H129.385V53.2593H127.904V51.7778ZM127.904 53.2593H129.385V54.7407H127.904V53.2593ZM127.904 54.7407H129.385V56.2222H127.904V54.7407ZM127.904 56.2222H129.385V57.7037H127.904V56.2222ZM127.904 57.7037H129.385V59.1852H127.904V57.7037ZM127.904 59.1852H129.385V60.6667H127.904V59.1852ZM127.904 60.6667H129.385V62.1481H127.904V60.6667ZM127.904 62.1481H129.385V63.6296H127.904V62.1481ZM127.904 63.6296H129.385V65.1111H127.904V63.6296ZM127.904 65.1111H129.385V66.5926H127.904V65.1111ZM127.904 66.5926H129.385V68.0741H127.904V66.5926ZM127.904 68.0741H129.385V69.5556H127.904V68.0741ZM127.904 69.5556H129.385V71.037H127.904V69.5556ZM127.904 71.037H129.385V72.5185H127.904V71.037ZM127.904 72.5185H129.385V74H127.904V72.5185ZM126.422 72.5185H127.904V74H126.422V72.5185ZM126.422 71.037H127.904V72.5185H126.422V71.037ZM126.422 69.5556H127.904V71.037H126.422V69.5556ZM126.422 53.2593H127.904V54.7407H126.422V53.2593ZM126.422 51.7778H127.904V53.2593H126.422V51.7778ZM126.422 54.7407H127.904V56.2222H126.422V54.7407ZM126.422 56.2222H127.904V57.7037H126.422V56.2222ZM126.422 57.7037H127.904V59.1852H126.422V57.7037ZM126.422 59.1852H127.904V60.6667H126.422V59.1852ZM126.422 60.6667H127.904V62.1481H126.422V60.6667ZM126.422 62.1481H127.904V63.6296H126.422V62.1481ZM126.422 63.6296H127.904V65.1111H126.422V63.6296ZM126.422 65.1111H127.904V66.5926H126.422V65.1111ZM126.422 66.5926H127.904V68.0741H126.422V66.5926ZM126.422 68.0741H127.904V69.5556H126.422V68.0741ZM129.385 72.5185H130.867V74H129.385V72.5185ZM129.385 71.037H130.867V72.5185H129.385V71.037ZM129.385 69.5556H130.867V71.037H129.385V69.5556ZM129.385 68.0741H130.867V69.5556H129.385V68.0741ZM129.385 65.1111H130.867V66.5926H129.385V65.1111ZM129.385 63.6296H130.867V65.1111H129.385V63.6296ZM129.385 62.1481H130.867V63.6296H129.385V62.1481ZM129.385 60.6667H130.867V62.1481H129.385V60.6667ZM129.385 59.1852H130.867V60.6667H129.385V59.1852ZM129.385 57.7037H130.867V59.1852H129.385V57.7037ZM129.385 51.7778H130.867V53.2593H129.385V51.7778ZM129.385 53.2593H130.867V54.7407H129.385V53.2593ZM129.385 54.7407H130.867V56.2222H129.385V54.7407ZM129.385 56.2222H130.867V57.7037H129.385V56.2222ZM129.385 66.5926H130.867V68.0741H129.385V66.5926ZM130.867 72.5185H132.348V74H130.867V72.5185ZM132.348 72.5185H133.83V74H132.348V72.5185ZM133.83 72.5185H135.311V74H133.83V72.5185ZM133.83 71.037H135.311V72.5185H133.83V71.037ZM133.83 69.5556H135.311V71.037H133.83V69.5556ZM132.348 69.5556H133.83V71.037H132.348V69.5556ZM132.348 71.037H133.83V72.5185H132.348V71.037ZM130.867 71.037H132.348V72.5185H130.867V71.037ZM130.867 69.5556H132.348V71.037H130.867V69.5556ZM135.311 69.5556H136.793V71.037H135.311V69.5556ZM135.311 71.037H136.793V72.5185H135.311V71.037ZM135.311 72.5185H136.793V74H135.311V72.5185ZM136.793 72.5185H138.274V74H136.793V72.5185ZM136.793 71.037H138.274V72.5185H136.793V71.037ZM136.793 69.5556H138.274V71.037H136.793V69.5556ZM138.274 69.5556H139.755V71.037H138.274V69.5556ZM138.274 71.037H139.755V72.5185H138.274V71.037ZM138.274 72.5185H139.755V74H138.274V72.5185ZM130.867 51.7778H132.348V53.2593H130.867V51.7778ZM132.348 51.7778H133.83V53.2593H132.348V51.7778ZM133.83 51.7778H135.311V53.2593H133.83V51.7778ZM135.311 51.7778H136.793V53.2593H135.311V51.7778ZM136.793 51.7778H138.274V53.2593H136.793V51.7778ZM138.274 51.7778H139.755V53.2593H138.274V51.7778ZM138.274 53.2593H139.755V54.7407H138.274V53.2593ZM138.274 54.7407H139.755V56.2222H138.274V54.7407ZM136.793 54.7407H138.274V56.2222H136.793V54.7407ZM135.311 54.7407H136.793V56.2222H135.311V54.7407ZM133.83 54.7407H135.311V56.2222H133.83V54.7407ZM132.348 54.7407H133.83V56.2222H132.348V54.7407ZM132.348 53.2593H133.83V54.7407H132.348V53.2593ZM130.867 53.2593H132.348V54.7407H130.867V53.2593ZM130.867 54.7407H132.348V56.2222H130.867V54.7407ZM133.83 53.2593H135.311V54.7407H133.83V53.2593ZM135.311 53.2593H136.793V54.7407H135.311V53.2593ZM136.793 53.2593H138.274V54.7407H136.793V53.2593ZM130.867 60.6667H132.348V62.1481H130.867V60.6667ZM130.867 62.1481H132.348V63.6296H130.867V62.1481ZM130.867 63.6296H132.348V65.1111H130.867V63.6296ZM132.348 63.6296H133.83V65.1111H132.348V63.6296ZM132.348 62.1481H133.83V63.6296H132.348V62.1481ZM132.348 60.6667H133.83V62.1481H132.348V60.6667ZM133.83 60.6667H135.311V62.1481H133.83V60.6667ZM133.83 62.1481H135.311V63.6296H133.83V62.1481ZM135.311 62.1481H136.793V63.6296H135.311V62.1481ZM135.311 60.6667H136.793V62.1481H135.311V60.6667ZM135.311 63.6296H136.793V65.1111H135.311V63.6296ZM133.83 63.6296H135.311V65.1111H133.83V63.6296ZM136.793 60.6667H138.274V62.1481H136.793V60.6667ZM136.793 62.1481H138.274V63.6296H136.793V62.1481ZM136.793 63.6296H138.274V65.1111H136.793V63.6296ZM154.563 51.7778H156.045V53.2593H154.563V51.7778ZM153.082 51.7778H154.563V53.2593H153.082V51.7778ZM151.6 51.7778H153.082V53.2593H151.6V51.7778ZM148.637 51.7778H150.119V53.2593H148.637V51.7778ZM147.156 51.7778H148.637V53.2593H147.156V51.7778ZM145.674 51.7778H147.156V53.2593H145.674V51.7778ZM150.119 51.7778H151.6V53.2593H150.119V51.7778ZM150.119 53.2593H151.6V54.7407H150.119V53.2593ZM151.6 53.2593H153.082V54.7407H151.6V53.2593ZM153.082 53.2593H154.563V54.7407H153.082V53.2593ZM154.563 53.2593H156.045V54.7407H154.563V53.2593ZM156.045 53.2593H157.526V54.7407H156.045V53.2593ZM148.637 53.2593H150.119V54.7407H148.637V53.2593ZM147.156 53.2593H148.637V54.7407H147.156V53.2593ZM145.674 53.2593H147.156V54.7407H145.674V53.2593ZM144.193 53.2593H145.674V54.7407H144.193V53.2593ZM142.711 54.7407H144.193V56.2222H142.711V54.7407ZM144.193 54.7407H145.674V56.2222H144.193V54.7407ZM145.674 54.7407H147.156V56.2222H145.674V54.7407ZM147.156 54.7407H148.637V56.2222H147.156V54.7407ZM148.637 54.7407H150.119V56.2222H148.637V54.7407ZM150.119 54.7407H151.6V56.2222H150.119V54.7407ZM151.6 54.7407H153.082V56.2222H151.6V54.7407ZM153.082 54.7407H154.563V56.2222H153.082V54.7407ZM154.563 54.7407H156.045V56.2222H154.563V54.7407ZM156.045 54.7407H157.526V56.2222H156.045V54.7407ZM157.526 54.7407H159.008V56.2222H157.526V54.7407ZM157.526 56.2222H159.008V57.7037H157.526V56.2222ZM157.526 57.7037H159.008V59.1852H157.526V57.7037ZM156.045 57.7037H157.526V59.1852H156.045V57.7037ZM156.045 56.2222H157.526V57.7037H156.045V56.2222ZM154.563 57.7037H156.045V59.1852H154.563V57.7037ZM154.563 56.2222H156.045V57.7037H154.563V56.2222ZM153.082 56.2222H154.563V57.7037H153.082V56.2222ZM147.156 56.2222H148.637V57.7037H147.156V56.2222ZM145.674 56.2222H147.156V57.7037H145.674V56.2222ZM144.193 56.2222H145.674V57.7037H144.193V56.2222ZM142.711 56.2222H144.193V57.7037H142.711V56.2222ZM142.711 57.7037H144.193V59.1852H142.711V57.7037ZM144.193 57.7037H145.674V59.1852H144.193V57.7037ZM144.193 59.1852H145.674V60.6667H144.193V59.1852ZM145.674 57.7037H147.156V59.1852H145.674V57.7037ZM145.674 59.1852H147.156V60.6667H145.674V59.1852ZM147.156 59.1852H148.637V60.6667H147.156V59.1852ZM142.711 59.1852H144.193V60.6667H142.711V59.1852ZM142.711 60.6667H144.193V62.1481H142.711V60.6667ZM144.193 60.6667H145.674V62.1481H144.193V60.6667ZM144.193 62.1481H145.674V63.6296H144.193V62.1481ZM145.674 62.1481H147.156V63.6296H145.674V62.1481ZM145.674 60.6667H147.156V62.1481H145.674V60.6667ZM147.156 60.6667H148.637V62.1481H147.156V60.6667ZM147.156 62.1481H148.637V63.6296H147.156V62.1481ZM145.674 63.6296H147.156V65.1111H145.674V63.6296ZM147.156 63.6296H148.637V65.1111H147.156V63.6296ZM148.637 63.6296H150.119V65.1111H148.637V63.6296ZM150.119 63.6296H151.6V65.1111H150.119V63.6296ZM151.6 63.6296H153.082V65.1111H151.6V63.6296ZM151.6 62.1481H153.082V63.6296H151.6V62.1481ZM153.082 62.1481H154.563V63.6296H153.082V62.1481ZM154.563 62.1481H156.045V63.6296H154.563V62.1481ZM154.563 60.6667H156.045V62.1481H154.563V60.6667ZM153.082 60.6667H154.563V62.1481H153.082V60.6667ZM151.6 60.6667H153.082V62.1481H151.6V60.6667ZM150.119 60.6667H151.6V62.1481H150.119V60.6667ZM150.119 62.1481H151.6V63.6296H150.119V62.1481ZM148.637 62.1481H150.119V63.6296H148.637V62.1481ZM148.637 60.6667H150.119V62.1481H148.637V60.6667ZM156.045 62.1481H157.526V63.6296H156.045V62.1481ZM156.045 63.6296H157.526V65.1111H156.045V63.6296ZM154.563 63.6296H156.045V65.1111H154.563V63.6296ZM154.563 65.1111H156.045V66.5926H154.563V65.1111ZM153.082 65.1111H154.563V66.5926H153.082V65.1111ZM153.082 63.6296H154.563V65.1111H153.082V63.6296ZM156.045 65.1111H157.526V66.5926H156.045V65.1111ZM157.526 65.1111H159.008V66.5926H157.526V65.1111ZM157.526 63.6296H159.008V65.1111H157.526V63.6296ZM157.526 66.5926H159.008V68.0741H157.526V66.5926ZM157.526 68.0741H159.008V69.5556H157.526V68.0741ZM157.526 69.5556H159.008V71.037H157.526V69.5556ZM156.045 69.5556H157.526V71.037H156.045V69.5556ZM156.045 71.037H157.526V72.5185H156.045V71.037ZM154.563 71.037H156.045V72.5185H154.563V71.037ZM154.563 69.5556H156.045V71.037H154.563V69.5556ZM153.082 69.5556H154.563V71.037H153.082V69.5556ZM153.082 68.0741H154.563V69.5556H153.082V68.0741ZM154.563 68.0741H156.045V69.5556H154.563V68.0741ZM154.563 66.5926H156.045V68.0741H154.563V66.5926ZM156.045 66.5926H157.526V68.0741H156.045V66.5926ZM156.045 68.0741H157.526V69.5556H156.045V68.0741ZM142.711 66.5926H144.193V68.0741H142.711V66.5926ZM142.711 68.0741H144.193V69.5556H142.711V68.0741ZM144.193 68.0741H145.674V69.5556H144.193V68.0741ZM144.193 66.5926H145.674V68.0741H144.193V66.5926ZM145.674 66.5926H147.156V68.0741H145.674V66.5926ZM145.674 68.0741H147.156V69.5556H145.674V68.0741ZM142.711 69.5556H144.193V71.037H142.711V69.5556ZM144.193 69.5556H145.674V71.037H144.193V69.5556ZM147.156 68.0741H148.637V69.5556H147.156V68.0741ZM147.156 69.5556H148.637V71.037H147.156V69.5556ZM145.674 69.5556H147.156V71.037H145.674V69.5556ZM145.674 71.037H147.156V72.5185H145.674V71.037ZM144.193 71.037H145.674V72.5185H144.193V71.037ZM145.674 72.5185H147.156V74H145.674V72.5185ZM147.156 72.5185H148.637V74H147.156V72.5185ZM148.637 72.5185H150.119V74H148.637V72.5185ZM150.119 72.5185H151.6V74H150.119V72.5185ZM151.6 72.5185H153.082V74H151.6V72.5185ZM153.082 72.5185H154.563V74H153.082V72.5185ZM154.563 72.5185H156.045V74H154.563V72.5185ZM153.082 71.037H154.563V72.5185H153.082V71.037ZM151.6 71.037H153.082V72.5185H151.6V71.037ZM150.119 71.037H151.6V72.5185H150.119V71.037ZM150.119 69.5556H151.6V71.037H150.119V69.5556ZM148.637 69.5556H150.119V71.037H148.637V69.5556ZM151.6 69.5556H153.082V71.037H151.6V69.5556ZM148.637 71.037H150.119V72.5185H148.637V71.037ZM147.156 71.037H148.637V72.5185H147.156V71.037ZM173.821 51.7778H175.302V53.2593H173.821V51.7778ZM172.339 51.7778H173.821V53.2593H172.339V51.7778ZM170.858 51.7778H172.339V53.2593H170.858V51.7778ZM167.895 51.7778H169.376V53.2593H167.895V51.7778ZM166.413 51.7778H167.895V53.2593H166.413V51.7778ZM164.932 51.7778H166.413V53.2593H164.932V51.7778ZM169.376 51.7778H170.858V53.2593H169.376V51.7778ZM169.376 53.2593H170.858V54.7407H169.376V53.2593ZM170.858 53.2593H172.339V54.7407H170.858V53.2593ZM172.339 53.2593H173.821V54.7407H172.339V53.2593ZM173.821 53.2593H175.302V54.7407H173.821V53.2593ZM175.302 53.2593H176.784V54.7407H175.302V53.2593ZM167.895 53.2593H169.376V54.7407H167.895V53.2593ZM166.413 53.2593H167.895V54.7407H166.413V53.2593ZM164.932 53.2593H166.413V54.7407H164.932V53.2593ZM163.451 53.2593H164.932V54.7407H163.451V53.2593ZM161.969 54.7407H163.451V56.2222H161.969V54.7407ZM163.451 54.7407H164.932V56.2222H163.451V54.7407ZM164.932 54.7407H166.413V56.2222H164.932V54.7407ZM166.413 54.7407H167.895V56.2222H166.413V54.7407ZM167.895 54.7407H169.376V56.2222H167.895V54.7407ZM169.376 54.7407H170.858V56.2222H169.376V54.7407ZM170.858 54.7407H172.339V56.2222H170.858V54.7407ZM172.339 54.7407H173.821V56.2222H172.339V54.7407ZM173.821 54.7407H175.302V56.2222H173.821V54.7407ZM175.302 54.7407H176.784V56.2222H175.302V54.7407ZM176.784 54.7407H178.265V56.2222H176.784V54.7407ZM176.784 56.2222H178.265V57.7037H176.784V56.2222ZM176.784 57.7037H178.265V59.1852H176.784V57.7037ZM175.302 57.7037H176.784V59.1852H175.302V57.7037ZM175.302 56.2222H176.784V57.7037H175.302V56.2222ZM173.821 57.7037H175.302V59.1852H173.821V57.7037ZM173.821 56.2222H175.302V57.7037H173.821V56.2222ZM172.339 56.2222H173.821V57.7037H172.339V56.2222ZM166.413 56.2222H167.895V57.7037H166.413V56.2222ZM164.932 56.2222H166.413V57.7037H164.932V56.2222ZM163.451 56.2222H164.932V57.7037H163.451V56.2222ZM161.969 56.2222H163.451V57.7037H161.969V56.2222ZM161.969 57.7037H163.451V59.1852H161.969V57.7037ZM163.451 57.7037H164.932V59.1852H163.451V57.7037ZM163.451 59.1852H164.932V60.6667H163.451V59.1852ZM164.932 57.7037H166.413V59.1852H164.932V57.7037ZM164.932 59.1852H166.413V60.6667H164.932V59.1852ZM166.413 59.1852H167.895V60.6667H166.413V59.1852ZM161.969 59.1852H163.451V60.6667H161.969V59.1852ZM161.969 60.6667H163.451V62.1481H161.969V60.6667ZM163.451 60.6667H164.932V62.1481H163.451V60.6667ZM163.451 62.1481H164.932V63.6296H163.451V62.1481ZM164.932 62.1481H166.413V63.6296H164.932V62.1481ZM164.932 60.6667H166.413V62.1481H164.932V60.6667ZM166.413 60.6667H167.895V62.1481H166.413V60.6667ZM166.413 62.1481H167.895V63.6296H166.413V62.1481ZM164.932 63.6296H166.413V65.1111H164.932V63.6296ZM166.413 63.6296H167.895V65.1111H166.413V63.6296ZM167.895 63.6296H169.376V65.1111H167.895V63.6296ZM169.376 63.6296H170.858V65.1111H169.376V63.6296ZM170.858 63.6296H172.339V65.1111H170.858V63.6296ZM170.858 62.1481H172.339V63.6296H170.858V62.1481ZM172.339 62.1481H173.821V63.6296H172.339V62.1481ZM173.821 62.1481H175.302V63.6296H173.821V62.1481ZM173.821 60.6667H175.302V62.1481H173.821V60.6667ZM172.339 60.6667H173.821V62.1481H172.339V60.6667ZM170.858 60.6667H172.339V62.1481H170.858V60.6667ZM169.376 60.6667H170.858V62.1481H169.376V60.6667ZM169.376 62.1481H170.858V63.6296H169.376V62.1481ZM167.895 62.1481H169.376V63.6296H167.895V62.1481ZM167.895 60.6667H169.376V62.1481H167.895V60.6667ZM175.302 62.1481H176.784V63.6296H175.302V62.1481ZM175.302 63.6296H176.784V65.1111H175.302V63.6296ZM173.821 63.6296H175.302V65.1111H173.821V63.6296ZM173.821 65.1111H175.302V66.5926H173.821V65.1111ZM172.339 65.1111H173.821V66.5926H172.339V65.1111ZM172.339 63.6296H173.821V65.1111H172.339V63.6296ZM175.302 65.1111H176.784V66.5926H175.302V65.1111ZM176.784 65.1111H178.265V66.5926H176.784V65.1111ZM176.784 63.6296H178.265V65.1111H176.784V63.6296ZM176.784 66.5926H178.265V68.0741H176.784V66.5926ZM176.784 68.0741H178.265V69.5556H176.784V68.0741ZM176.784 69.5556H178.265V71.037H176.784V69.5556ZM175.302 69.5556H176.784V71.037H175.302V69.5556ZM175.302 71.037H176.784V72.5185H175.302V71.037ZM173.821 71.037H175.302V72.5185H173.821V71.037ZM173.821 69.5556H175.302V71.037H173.821V69.5556ZM172.339 69.5556H173.821V71.037H172.339V69.5556ZM172.339 68.0741H173.821V69.5556H172.339V68.0741ZM173.821 68.0741H175.302V69.5556H173.821V68.0741ZM173.821 66.5926H175.302V68.0741H173.821V66.5926ZM175.302 66.5926H176.784V68.0741H175.302V66.5926ZM175.302 68.0741H176.784V69.5556H175.302V68.0741ZM161.969 66.5926H163.451V68.0741H161.969V66.5926ZM161.969 68.0741H163.451V69.5556H161.969V68.0741ZM163.451 68.0741H164.932V69.5556H163.451V68.0741ZM163.451 66.5926H164.932V68.0741H163.451V66.5926ZM164.932 66.5926H166.413V68.0741H164.932V66.5926ZM164.932 68.0741H166.413V69.5556H164.932V68.0741ZM161.969 69.5556H163.451V71.037H161.969V69.5556ZM163.451 69.5556H164.932V71.037H163.451V69.5556ZM166.413 68.0741H167.895V69.5556H166.413V68.0741ZM166.413 69.5556H167.895V71.037H166.413V69.5556ZM164.932 69.5556H166.413V71.037H164.932V69.5556ZM164.932 71.037H166.413V72.5185H164.932V71.037ZM163.451 71.037H164.932V72.5185H163.451V71.037ZM164.932 72.5185H166.413V74H164.932V72.5185ZM166.413 72.5185H167.895V74H166.413V72.5185ZM167.895 72.5185H169.376V74H167.895V72.5185ZM169.376 72.5185H170.858V74H169.376V72.5185ZM170.858 72.5185H172.339V74H170.858V72.5185ZM172.339 72.5185H173.821V74H172.339V72.5185ZM173.821 72.5185H175.302V74H173.821V72.5185ZM172.339 71.037H173.821V72.5185H172.339V71.037ZM170.858 71.037H172.339V72.5185H170.858V71.037ZM169.376 71.037H170.858V72.5185H169.376V71.037ZM169.376 69.5556H170.858V71.037H169.376V69.5556ZM167.895 69.5556H169.376V71.037H167.895V69.5556ZM170.858 69.5556H172.339V71.037H170.858V69.5556ZM167.895 71.037H169.376V72.5185H167.895V71.037ZM166.413 71.037H167.895V72.5185H166.413V71.037ZM201.985 51.7778H203.466V53.2593H201.985V51.7778ZM200.503 51.7778H201.985V53.2593H200.503V51.7778ZM199.022 51.7778H200.503V53.2593H199.022V51.7778ZM196.059 51.7778H197.541V53.2593H196.059V51.7778ZM194.578 51.7778H196.059V53.2593H194.578V51.7778ZM193.096 51.7778H194.578V53.2593H193.096V51.7778ZM197.541 51.7778H199.022V53.2593H197.541V51.7778ZM197.541 53.2593H199.022V54.7407H197.541V53.2593ZM199.022 53.2593H200.503V54.7407H199.022V53.2593ZM200.503 53.2593H201.985V54.7407H200.503V53.2593ZM201.985 53.2593H203.466V54.7407H201.985V53.2593ZM203.466 53.2593H204.948V54.7407H203.466V53.2593ZM196.059 53.2593H197.541V54.7407H196.059V53.2593ZM194.578 53.2593H196.059V54.7407H194.578V53.2593ZM193.096 53.2593H194.578V54.7407H193.096V53.2593ZM191.615 53.2593H193.096V54.7407H191.615V53.2593ZM190.133 54.7407H191.615V56.2222H190.133V54.7407ZM191.615 54.7407H193.096V56.2222H191.615V54.7407ZM193.096 54.7407H194.578V56.2222H193.096V54.7407ZM194.578 54.7407H196.059V56.2222H194.578V54.7407ZM196.059 54.7407H197.541V56.2222H196.059V54.7407ZM197.541 54.7407H199.022V56.2222H197.541V54.7407ZM199.022 54.7407H200.503V56.2222H199.022V54.7407ZM200.503 54.7407H201.985V56.2222H200.503V54.7407ZM201.985 54.7407H203.466V56.2222H201.985V54.7407ZM203.466 54.7407H204.948V56.2222H203.466V54.7407ZM204.948 54.7407H206.429V56.2222H204.948V54.7407ZM204.948 56.2222H206.429V57.7037H204.948V56.2222ZM204.948 57.7037H206.429V59.1852H204.948V57.7037ZM203.466 57.7037H204.948V59.1852H203.466V57.7037ZM203.466 56.2222H204.948V57.7037H203.466V56.2222ZM201.985 57.7037H203.466V59.1852H201.985V57.7037ZM201.985 56.2222H203.466V57.7037H201.985V56.2222ZM200.503 56.2222H201.985V57.7037H200.503V56.2222ZM194.578 56.2222H196.059V57.7037H194.578V56.2222ZM193.096 56.2222H194.578V57.7037H193.096V56.2222ZM191.615 56.2222H193.096V57.7037H191.615V56.2222ZM190.133 56.2222H191.615V57.7037H190.133V56.2222ZM190.133 57.7037H191.615V59.1852H190.133V57.7037ZM191.615 57.7037H193.096V59.1852H191.615V57.7037ZM191.615 59.1852H193.096V60.6667H191.615V59.1852ZM193.096 57.7037H194.578V59.1852H193.096V57.7037ZM193.096 59.1852H194.578V60.6667H193.096V59.1852ZM194.578 59.1852H196.059V60.6667H194.578V59.1852ZM190.133 59.1852H191.615V60.6667H190.133V59.1852ZM190.133 60.6667H191.615V62.1481H190.133V60.6667ZM191.615 60.6667H193.096V62.1481H191.615V60.6667ZM191.615 62.1481H193.096V63.6296H191.615V62.1481ZM193.096 62.1481H194.578V63.6296H193.096V62.1481ZM193.096 60.6667H194.578V62.1481H193.096V60.6667ZM194.578 60.6667H196.059V62.1481H194.578V60.6667ZM194.578 62.1481H196.059V63.6296H194.578V62.1481ZM193.096 63.6296H194.578V65.1111H193.096V63.6296ZM194.578 63.6296H196.059V65.1111H194.578V63.6296ZM196.059 63.6296H197.541V65.1111H196.059V63.6296ZM197.541 63.6296H199.022V65.1111H197.541V63.6296ZM199.022 63.6296H200.503V65.1111H199.022V63.6296ZM199.022 62.1481H200.503V63.6296H199.022V62.1481ZM200.503 62.1481H201.985V63.6296H200.503V62.1481ZM201.985 62.1481H203.466V63.6296H201.985V62.1481ZM201.985 60.6667H203.466V62.1481H201.985V60.6667ZM200.503 60.6667H201.985V62.1481H200.503V60.6667ZM199.022 60.6667H200.503V62.1481H199.022V60.6667ZM197.541 60.6667H199.022V62.1481H197.541V60.6667ZM197.541 62.1481H199.022V63.6296H197.541V62.1481ZM196.059 62.1481H197.541V63.6296H196.059V62.1481ZM196.059 60.6667H197.541V62.1481H196.059V60.6667ZM203.466 62.1481H204.948V63.6296H203.466V62.1481ZM203.466 63.6296H204.948V65.1111H203.466V63.6296ZM201.985 63.6296H203.466V65.1111H201.985V63.6296ZM201.985 65.1111H203.466V66.5926H201.985V65.1111ZM200.503 65.1111H201.985V66.5926H200.503V65.1111ZM200.503 63.6296H201.985V65.1111H200.503V63.6296ZM203.466 65.1111H204.948V66.5926H203.466V65.1111ZM204.948 65.1111H206.429V66.5926H204.948V65.1111ZM204.948 63.6296H206.429V65.1111H204.948V63.6296ZM204.948 66.5926H206.429V68.0741H204.948V66.5926ZM204.948 68.0741H206.429V69.5556H204.948V68.0741ZM204.948 69.5556H206.429V71.037H204.948V69.5556ZM203.466 69.5556H204.948V71.037H203.466V69.5556ZM203.466 71.037H204.948V72.5185H203.466V71.037ZM201.985 71.037H203.466V72.5185H201.985V71.037ZM201.985 69.5556H203.466V71.037H201.985V69.5556ZM200.503 69.5556H201.985V71.037H200.503V69.5556ZM200.503 68.0741H201.985V69.5556H200.503V68.0741ZM201.985 68.0741H203.466V69.5556H201.985V68.0741ZM201.985 66.5926H203.466V68.0741H201.985V66.5926ZM203.466 66.5926H204.948V68.0741H203.466V66.5926ZM203.466 68.0741H204.948V69.5556H203.466V68.0741ZM190.133 66.5926H191.615V68.0741H190.133V66.5926ZM190.133 68.0741H191.615V69.5556H190.133V68.0741ZM191.615 68.0741H193.096V69.5556H191.615V68.0741ZM191.615 66.5926H193.096V68.0741H191.615V66.5926ZM193.096 66.5926H194.578V68.0741H193.096V66.5926ZM193.096 68.0741H194.578V69.5556H193.096V68.0741ZM190.133 69.5556H191.615V71.037H190.133V69.5556ZM191.615 69.5556H193.096V71.037H191.615V69.5556ZM194.578 68.0741H196.059V69.5556H194.578V68.0741ZM194.578 69.5556H196.059V71.037H194.578V69.5556ZM193.096 69.5556H194.578V71.037H193.096V69.5556ZM193.096 71.037H194.578V72.5185H193.096V71.037ZM191.615 71.037H193.096V72.5185H191.615V71.037ZM193.096 72.5185H194.578V74H193.096V72.5185ZM194.578 72.5185H196.059V74H194.578V72.5185ZM196.059 72.5185H197.541V74H196.059V72.5185ZM197.541 72.5185H199.022V74H197.541V72.5185ZM199.022 72.5185H200.503V74H199.022V72.5185ZM200.503 72.5185H201.985V74H200.503V72.5185ZM201.985 72.5185H203.466V74H201.985V72.5185ZM200.503 71.037H201.985V72.5185H200.503V71.037ZM199.022 71.037H200.503V72.5185H199.022V71.037ZM197.541 71.037H199.022V72.5185H197.541V71.037ZM197.541 69.5556H199.022V71.037H197.541V69.5556ZM196.059 69.5556H197.541V71.037H196.059V69.5556ZM199.022 69.5556H200.503V71.037H199.022V69.5556ZM196.059 71.037H197.541V72.5185H196.059V71.037ZM194.578 71.037H196.059V72.5185H194.578V71.037ZM213.835 72.5185H215.317V74H213.835V72.5185ZM215.317 72.5185H216.798V74H215.317V72.5185ZM216.798 72.5185H218.28V74H216.798V72.5185ZM216.798 71.037H218.28V72.5185H216.798V71.037ZM216.798 69.5556H218.28V71.037H216.798V69.5556ZM216.798 68.0741H218.28V69.5556H216.798V68.0741ZM216.798 66.5926H218.28V68.0741H216.798V66.5926ZM216.798 65.1111H218.28V66.5926H216.798V65.1111ZM216.798 63.6296H218.28V65.1111H216.798V63.6296ZM216.798 62.1481H218.28V63.6296H216.798V62.1481ZM216.798 60.6667H218.28V62.1481H216.798V60.6667ZM216.798 59.1852H218.28V60.6667H216.798V59.1852ZM216.798 57.7037H218.28V59.1852H216.798V57.7037ZM216.798 56.2222H218.28V57.7037H216.798V56.2222ZM215.317 56.2222H216.798V57.7037H215.317V56.2222ZM215.317 54.7407H216.798V56.2222H215.317V54.7407ZM216.798 54.7407H218.28V56.2222H216.798V54.7407ZM213.835 54.7407H215.317V56.2222H213.835V54.7407ZM213.835 60.6667H215.317V62.1481H213.835V60.6667ZM213.835 62.1481H215.317V63.6296H213.835V62.1481ZM213.835 63.6296H215.317V65.1111H213.835V63.6296ZM213.835 65.1111H215.317V66.5926H213.835V65.1111ZM213.835 66.5926H215.317V68.0741H213.835V66.5926ZM215.317 68.0741H216.798V69.5556H215.317V68.0741ZM215.317 69.5556H216.798V71.037H215.317V69.5556ZM215.317 71.037H216.798V72.5185H215.317V71.037ZM213.835 71.037H215.317V72.5185H213.835V71.037ZM213.835 69.5556H215.317V71.037H213.835V69.5556ZM213.835 68.0741H215.317V69.5556H213.835V68.0741ZM215.317 62.1481H216.798V63.6296H215.317V62.1481ZM215.317 60.6667H216.798V62.1481H215.317V60.6667ZM215.317 59.1852H216.798V60.6667H215.317V59.1852ZM215.317 57.7037H216.798V59.1852H215.317V57.7037ZM213.835 57.7037H215.317V59.1852H213.835V57.7037ZM213.835 59.1852H215.317V60.6667H213.835V59.1852ZM215.317 66.5926H216.798V68.0741H215.317V66.5926ZM215.317 65.1111H216.798V66.5926H215.317V65.1111ZM215.317 63.6296H216.798V65.1111H215.317V63.6296ZM213.835 56.2222H215.317V57.7037H213.835V56.2222ZM213.835 53.2593H215.317V54.7407H213.835V53.2593ZM215.317 53.2593H216.798V54.7407H215.317V53.2593ZM216.798 53.2593H218.28V54.7407H216.798V53.2593ZM216.798 51.7778H218.28V53.2593H216.798V51.7778ZM215.317 51.7778H216.798V53.2593H215.317V51.7778ZM213.835 51.7778H215.317V53.2593H213.835V51.7778ZM212.354 51.7778H213.835V53.2593H212.354V51.7778ZM210.872 51.7778H212.354V53.2593H210.872V51.7778ZM210.872 53.2593H212.354V54.7407H210.872V53.2593ZM210.872 54.7407H212.354V56.2222H210.872V54.7407ZM212.354 53.2593H213.835V54.7407H212.354V53.2593ZM212.354 54.7407H213.835V56.2222H212.354V54.7407ZM218.28 51.7778H219.761V53.2593H218.28V51.7778ZM219.761 51.7778H221.243V53.2593H219.761V51.7778ZM219.761 53.2593H221.243V54.7407H219.761V53.2593ZM219.761 54.7407H221.243V56.2222H219.761V54.7407ZM218.28 54.7407H219.761V56.2222H218.28V54.7407ZM218.28 53.2593H219.761V54.7407H218.28V53.2593ZM221.243 51.7778H222.724V53.2593H221.243V51.7778ZM221.243 53.2593H222.724V54.7407H221.243V53.2593ZM221.243 54.7407H222.724V56.2222H221.243V54.7407ZM209.391 51.7778H210.872V53.2593H209.391V51.7778ZM209.391 53.2593H210.872V54.7407H209.391V53.2593ZM209.391 54.7407H210.872V56.2222H209.391V54.7407ZM231.606 51.7778H233.087V53.2593H231.606V51.7778ZM233.087 51.7778H234.569V53.2593H233.087V51.7778ZM233.087 53.2593H234.569V54.7407H233.087V53.2593ZM234.569 53.2593H236.05V54.7407H234.569V53.2593ZM231.606 53.2593H233.087V54.7407H231.606V53.2593ZM230.124 53.2593H231.606V54.7407H230.124V53.2593ZM230.124 54.7407H231.606V56.2222H230.124V54.7407ZM228.643 54.7407H230.124V56.2222H228.643V54.7407ZM231.606 54.7407H233.087V56.2222H231.606V54.7407ZM233.087 54.7407H234.569V56.2222H233.087V54.7407ZM234.569 54.7407H236.05V56.2222H234.569V54.7407ZM236.05 54.7407H237.532V56.2222H236.05V54.7407ZM236.05 56.2222H237.532V57.7037H236.05V56.2222ZM237.532 56.2222H239.013V57.7037H237.532V56.2222ZM234.569 56.2222H236.05V57.7037H234.569V56.2222ZM233.087 56.2222H234.569V57.7037H233.087V56.2222ZM231.606 56.2222H233.087V57.7037H231.606V56.2222ZM230.124 56.2222H231.606V57.7037H230.124V56.2222ZM228.643 56.2222H230.124V57.7037H228.643V56.2222ZM227.161 56.2222H228.643V57.7037H227.161V56.2222ZM230.124 57.7037H231.606V59.1852H230.124V57.7037ZM228.643 57.7037H230.124V59.1852H228.643V57.7037ZM227.161 57.7037H228.643V59.1852H227.161V57.7037ZM225.68 57.7037H227.161V59.1852H225.68V57.7037ZM225.68 59.1852H227.161V60.6667H225.68V59.1852ZM225.68 60.6667H227.161V62.1481H225.68V60.6667ZM227.161 60.6667H228.643V62.1481H227.161V60.6667ZM227.161 59.1852H228.643V60.6667H227.161V59.1852ZM228.643 59.1852H230.124V60.6667H228.643V59.1852ZM228.643 60.6667H230.124V62.1481H228.643V60.6667ZM228.643 62.1481H230.124V63.6296H228.643V62.1481ZM227.161 62.1481H228.643V63.6296H227.161V62.1481ZM225.68 62.1481H227.161V63.6296H225.68V62.1481ZM225.68 63.6296H227.161V65.1111H225.68V63.6296ZM227.161 63.6296H228.643V65.1111H227.161V63.6296ZM228.643 63.6296H230.124V65.1111H228.643V63.6296ZM230.124 63.6296H231.606V65.1111H230.124V63.6296ZM231.606 63.6296H233.087V65.1111H231.606V63.6296ZM233.087 63.6296H234.569V65.1111H233.087V63.6296ZM234.569 63.6296H236.05V65.1111H234.569V63.6296ZM236.05 62.1481H237.532V63.6296H236.05V62.1481ZM237.532 62.1481H239.013V63.6296H237.532V62.1481ZM237.532 63.6296H239.013V65.1111H237.532V63.6296ZM236.05 63.6296H237.532V65.1111H236.05V63.6296ZM239.013 63.6296H240.495V65.1111H239.013V63.6296ZM239.013 62.1481H240.495V63.6296H239.013V62.1481ZM239.013 60.6667H240.495V62.1481H239.013V60.6667ZM239.013 59.1852H240.495V60.6667H239.013V59.1852ZM239.013 57.7037H240.495V59.1852H239.013V57.7037ZM237.532 57.7037H239.013V59.1852H237.532V57.7037ZM236.05 57.7037H237.532V59.1852H236.05V57.7037ZM234.569 57.7037H236.05V59.1852H234.569V57.7037ZM237.532 59.1852H239.013V60.6667H237.532V59.1852ZM237.532 60.6667H239.013V62.1481H237.532V60.6667ZM236.05 60.6667H237.532V62.1481H236.05V60.6667ZM236.05 59.1852H237.532V60.6667H236.05V59.1852ZM225.68 65.1111H227.161V66.5926H225.68V65.1111ZM227.161 65.1111H228.643V66.5926H227.161V65.1111ZM228.643 65.1111H230.124V66.5926H228.643V65.1111ZM230.124 65.1111H231.606V66.5926H230.124V65.1111ZM231.606 65.1111H233.087V66.5926H231.606V65.1111ZM233.087 65.1111H234.569V66.5926H233.087V65.1111ZM234.569 65.1111H236.05V66.5926H234.569V65.1111ZM236.05 65.1111H237.532V66.5926H236.05V65.1111ZM237.532 65.1111H239.013V66.5926H237.532V65.1111ZM239.013 65.1111H240.495V66.5926H239.013V65.1111ZM239.013 66.5926H240.495V68.0741H239.013V66.5926ZM237.532 66.5926H239.013V68.0741H237.532V66.5926ZM236.05 66.5926H237.532V68.0741H236.05V66.5926ZM234.569 66.5926H236.05V68.0741H234.569V66.5926ZM233.087 66.5926H234.569V68.0741H233.087V66.5926ZM231.606 66.5926H233.087V68.0741H231.606V66.5926ZM230.124 66.5926H231.606V68.0741H230.124V66.5926ZM227.161 66.5926H228.643V68.0741H227.161V66.5926ZM225.68 66.5926H227.161V68.0741H225.68V66.5926ZM228.643 66.5926H230.124V68.0741H228.643V66.5926ZM228.643 68.0741H230.124V69.5556H228.643V68.0741ZM228.643 69.5556H230.124V71.037H228.643V69.5556ZM228.643 71.037H230.124V72.5185H228.643V71.037ZM228.643 72.5185H230.124V74H228.643V72.5185ZM227.161 72.5185H228.643V74H227.161V72.5185ZM225.68 72.5185H227.161V74H225.68V72.5185ZM225.68 71.037H227.161V72.5185H225.68V71.037ZM225.68 69.5556H227.161V71.037H225.68V69.5556ZM225.68 68.0741H227.161V69.5556H225.68V68.0741ZM227.161 68.0741H228.643V69.5556H227.161V68.0741ZM227.161 69.5556H228.643V71.037H227.161V69.5556ZM227.161 71.037H228.643V72.5185H227.161V71.037ZM236.05 68.0741H237.532V69.5556H236.05V68.0741ZM236.05 69.5556H237.532V71.037H236.05V69.5556ZM236.05 71.037H237.532V72.5185H236.05V71.037ZM236.05 72.5185H237.532V74H236.05V72.5185ZM237.532 72.5185H239.013V74H237.532V72.5185ZM239.013 72.5185H240.495V74H239.013V72.5185ZM239.013 71.037H240.495V72.5185H239.013V71.037ZM239.013 69.5556H240.495V71.037H239.013V69.5556ZM239.013 68.0741H240.495V69.5556H239.013V68.0741ZM237.532 68.0741H239.013V69.5556H237.532V68.0741ZM237.532 69.5556H239.013V71.037H237.532V69.5556ZM237.532 71.037H239.013V72.5185H237.532V71.037ZM243.453 51.7778H244.935V53.2593H243.453V51.7778ZM244.935 51.7778H246.416V53.2593H244.935V51.7778ZM246.416 51.7778H247.898V53.2593H246.416V51.7778ZM247.898 51.7778H249.379V53.2593H247.898V51.7778ZM249.379 51.7778H250.861V53.2593H249.379V51.7778ZM250.861 51.7778H252.342V53.2593H250.861V51.7778ZM252.342 51.7778H253.824V53.2593H252.342V51.7778ZM253.824 51.7778H255.305V53.2593H253.824V51.7778ZM253.824 53.2593H255.305V54.7407H253.824V53.2593ZM255.305 53.2593H256.787V54.7407H255.305V53.2593ZM252.342 53.2593H253.824V54.7407H252.342V53.2593ZM250.861 53.2593H252.342V54.7407H250.861V53.2593ZM249.379 53.2593H250.861V54.7407H249.379V53.2593ZM247.898 53.2593H249.379V54.7407H247.898V53.2593ZM246.416 53.2593H247.898V54.7407H246.416V53.2593ZM244.935 53.2593H246.416V54.7407H244.935V53.2593ZM243.453 53.2593H244.935V54.7407H243.453V53.2593ZM243.453 54.7407H244.935V56.2222H243.453V54.7407ZM244.935 54.7407H246.416V56.2222H244.935V54.7407ZM246.416 54.7407H247.898V56.2222H246.416V54.7407ZM247.898 54.7407H249.379V56.2222H247.898V54.7407ZM250.861 54.7407H252.342V56.2222H250.861V54.7407ZM252.342 54.7407H253.824V56.2222H252.342V54.7407ZM253.824 54.7407H255.305V56.2222H253.824V54.7407ZM255.305 54.7407H256.787V56.2222H255.305V54.7407ZM256.787 54.7407H258.268V56.2222H256.787V54.7407ZM249.379 54.7407H250.861V56.2222H249.379V54.7407ZM252.342 56.2222H253.824V57.7037H252.342V56.2222ZM253.824 56.2222H255.305V57.7037H253.824V56.2222ZM256.787 56.2222H258.268V57.7037H256.787V56.2222ZM255.305 56.2222H256.787V57.7037H255.305V56.2222ZM255.305 57.7037H256.787V59.1852H255.305V57.7037ZM255.305 60.6667H256.787V62.1481H255.305V60.6667ZM256.787 60.6667H258.268V62.1481H256.787V60.6667ZM256.787 62.1481H258.268V63.6296H256.787V62.1481ZM256.787 57.7037H258.268V59.1852H256.787V57.7037ZM253.824 60.6667H255.305V62.1481H253.824V60.6667ZM253.824 57.7037H255.305V59.1852H253.824V57.7037ZM252.342 60.6667H253.824V62.1481H252.342V60.6667ZM253.824 62.1481H255.305V63.6296H253.824V62.1481ZM255.305 62.1481H256.787V63.6296H255.305V62.1481ZM255.305 63.6296H256.787V65.1111H255.305V63.6296ZM252.342 65.1111H253.824V66.5926H252.342V65.1111ZM253.824 65.1111H255.305V66.5926H253.824V65.1111ZM253.824 63.6296H255.305V65.1111H253.824V63.6296ZM252.342 63.6296H253.824V65.1111H252.342V63.6296ZM252.342 62.1481H253.824V63.6296H252.342V62.1481ZM250.861 65.1111H252.342V66.5926H250.861V65.1111ZM249.379 65.1111H250.861V66.5926H249.379V65.1111ZM247.898 65.1111H249.379V66.5926H247.898V65.1111ZM247.898 63.6296H249.379V65.1111H247.898V63.6296ZM249.379 63.6296H250.861V65.1111H249.379V63.6296ZM249.379 62.1481H250.861V63.6296H249.379V62.1481ZM250.861 62.1481H252.342V63.6296H250.861V62.1481ZM247.898 62.1481H249.379V63.6296H247.898V62.1481ZM250.861 63.6296H252.342V65.1111H250.861V63.6296ZM244.935 56.2222H246.416V57.7037H244.935V56.2222ZM246.416 56.2222H247.898V57.7037H246.416V56.2222ZM246.416 57.7037H247.898V59.1852H246.416V57.7037ZM246.416 59.1852H247.898V60.6667H246.416V59.1852ZM246.416 60.6667H247.898V62.1481H246.416V60.6667ZM244.935 60.6667H246.416V62.1481H244.935V60.6667ZM243.453 60.6667H244.935V62.1481H243.453V60.6667ZM243.453 59.1852H244.935V60.6667H243.453V59.1852ZM243.453 57.7037H244.935V59.1852H243.453V57.7037ZM243.453 56.2222H244.935V57.7037H243.453V56.2222ZM244.935 59.1852H246.416V60.6667H244.935V59.1852ZM244.935 62.1481H246.416V63.6296H244.935V62.1481ZM244.935 57.7037H246.416V59.1852H244.935V57.7037ZM243.453 62.1481H244.935V63.6296H243.453V62.1481ZM243.453 63.6296H244.935V65.1111H243.453V63.6296ZM244.935 63.6296H246.416V65.1111H244.935V63.6296ZM246.416 62.1481H247.898V63.6296H246.416V62.1481ZM246.416 63.6296H247.898V65.1111H246.416V63.6296ZM246.416 65.1111H247.898V66.5926H246.416V65.1111ZM246.416 66.5926H247.898V68.0741H246.416V66.5926ZM246.416 68.0741H247.898V69.5556H246.416V68.0741ZM246.416 69.5556H247.898V71.037H246.416V69.5556ZM246.416 72.5185H247.898V74H246.416V72.5185ZM244.935 72.5185H246.416V74H244.935V72.5185ZM243.453 72.5185H244.935V74H243.453V72.5185ZM243.453 71.037H244.935V72.5185H243.453V71.037ZM243.453 69.5556H244.935V71.037H243.453V69.5556ZM243.453 68.0741H244.935V69.5556H243.453V68.0741ZM243.453 66.5926H244.935V68.0741H243.453V66.5926ZM243.453 65.1111H244.935V66.5926H243.453V65.1111ZM244.935 65.1111H246.416V66.5926H244.935V65.1111ZM244.935 66.5926H246.416V68.0741H244.935V66.5926ZM244.935 68.0741H246.416V69.5556H244.935V68.0741ZM244.935 69.5556H246.416V71.037H244.935V69.5556ZM244.935 71.037H246.416V72.5185H244.935V71.037ZM246.416 71.037H247.898V72.5185H246.416V71.037ZM256.787 59.1852H258.268V60.6667H256.787V59.1852ZM255.305 59.1852H256.787V60.6667H255.305V59.1852ZM253.824 59.1852H255.305V60.6667H253.824V59.1852ZM256.787 72.5185H258.268V74H256.787V72.5185ZM256.787 71.037H258.268V72.5185H256.787V71.037ZM256.787 69.5556H258.268V71.037H256.787V69.5556ZM255.305 69.5556H256.787V71.037H255.305V69.5556ZM253.824 69.5556H255.305V71.037H253.824V69.5556ZM253.824 71.037H255.305V72.5185H253.824V71.037ZM253.824 72.5185H255.305V74H253.824V72.5185ZM255.305 72.5185H256.787V74H255.305V72.5185ZM255.305 71.037H256.787V72.5185H255.305V71.037ZM253.824 68.0741H255.305V69.5556H253.824V68.0741ZM253.824 66.5926H255.305V68.0741H253.824V66.5926ZM252.342 66.5926H253.824V68.0741H252.342V66.5926ZM256.787 68.0741H258.268V69.5556H256.787V68.0741ZM256.787 66.5926H258.268V68.0741H256.787V66.5926ZM255.305 68.0741H256.787V69.5556H255.305V68.0741ZM255.305 66.5926H256.787V68.0741H255.305V66.5926ZM255.305 65.1111H256.787V66.5926H255.305V65.1111ZM265.671 72.5185H267.153V74H265.671V72.5185ZM267.153 72.5185H268.634V74H267.153V72.5185ZM268.634 72.5185H270.116V74H268.634V72.5185ZM268.634 71.037H270.116V72.5185H268.634V71.037ZM268.634 69.5556H270.116V71.037H268.634V69.5556ZM268.634 68.0741H270.116V69.5556H268.634V68.0741ZM268.634 66.5926H270.116V68.0741H268.634V66.5926ZM268.634 65.1111H270.116V66.5926H268.634V65.1111ZM268.634 63.6296H270.116V65.1111H268.634V63.6296ZM268.634 62.1481H270.116V63.6296H268.634V62.1481ZM268.634 60.6667H270.116V62.1481H268.634V60.6667ZM268.634 59.1852H270.116V60.6667H268.634V59.1852ZM268.634 57.7037H270.116V59.1852H268.634V57.7037ZM268.634 56.2222H270.116V57.7037H268.634V56.2222ZM267.153 56.2222H268.634V57.7037H267.153V56.2222ZM267.153 54.7407H268.634V56.2222H267.153V54.7407ZM268.634 54.7407H270.116V56.2222H268.634V54.7407ZM265.671 54.7407H267.153V56.2222H265.671V54.7407ZM265.671 60.6667H267.153V62.1481H265.671V60.6667ZM265.671 62.1481H267.153V63.6296H265.671V62.1481ZM265.671 63.6296H267.153V65.1111H265.671V63.6296ZM265.671 65.1111H267.153V66.5926H265.671V65.1111ZM265.671 66.5926H267.153V68.0741H265.671V66.5926ZM267.153 68.0741H268.634V69.5556H267.153V68.0741ZM267.153 69.5556H268.634V71.037H267.153V69.5556ZM267.153 71.037H268.634V72.5185H267.153V71.037ZM265.671 71.037H267.153V72.5185H265.671V71.037ZM265.671 69.5556H267.153V71.037H265.671V69.5556ZM265.671 68.0741H267.153V69.5556H265.671V68.0741ZM267.153 62.1481H268.634V63.6296H267.153V62.1481ZM267.153 60.6667H268.634V62.1481H267.153V60.6667ZM267.153 59.1852H268.634V60.6667H267.153V59.1852ZM267.153 57.7037H268.634V59.1852H267.153V57.7037ZM265.671 57.7037H267.153V59.1852H265.671V57.7037ZM265.671 59.1852H267.153V60.6667H265.671V59.1852ZM267.153 66.5926H268.634V68.0741H267.153V66.5926ZM267.153 65.1111H268.634V66.5926H267.153V65.1111ZM267.153 63.6296H268.634V65.1111H267.153V63.6296ZM265.671 56.2222H267.153V57.7037H265.671V56.2222ZM265.671 53.2593H267.153V54.7407H265.671V53.2593ZM267.153 53.2593H268.634V54.7407H267.153V53.2593ZM268.634 53.2593H270.116V54.7407H268.634V53.2593ZM268.634 51.7778H270.116V53.2593H268.634V51.7778ZM267.153 51.7778H268.634V53.2593H267.153V51.7778ZM265.671 51.7778H267.153V53.2593H265.671V51.7778ZM264.19 51.7778H265.671V53.2593H264.19V51.7778ZM262.708 51.7778H264.19V53.2593H262.708V51.7778ZM262.708 53.2593H264.19V54.7407H262.708V53.2593ZM262.708 54.7407H264.19V56.2222H262.708V54.7407ZM264.19 53.2593H265.671V54.7407H264.19V53.2593ZM264.19 54.7407H265.671V56.2222H264.19V54.7407ZM270.116 51.7778H271.597V53.2593H270.116V51.7778ZM271.597 51.7778H273.079V53.2593H271.597V51.7778ZM271.597 53.2593H273.079V54.7407H271.597V53.2593ZM271.597 54.7407H273.079V56.2222H271.597V54.7407ZM270.116 54.7407H271.597V56.2222H270.116V54.7407ZM270.116 53.2593H271.597V54.7407H270.116V53.2593ZM273.079 51.7778H274.56V53.2593H273.079V51.7778ZM273.079 53.2593H274.56V54.7407H273.079V53.2593ZM273.079 54.7407H274.56V56.2222H273.079V54.7407ZM261.227 51.7778H262.708V53.2593H261.227V51.7778ZM261.227 53.2593H262.708V54.7407H261.227V53.2593ZM261.227 54.7407H262.708V56.2222H261.227V54.7407Z" fill="white"/>
</svg>
