<?xml version="1.0" standalone="no"?>
<!DOCTYPE svg PUBLIC "-//W3C//DTD SVG 20010904//EN"
 "http://www.w3.org/TR/2001/REC-SVG-20010904/DTD/svg10.dtd">
<svg version="1.0" xmlns="http://www.w3.org/2000/svg"
 width="735.000000pt" height="455.000000pt" viewBox="0 0 735.000000 455.000000"
 preserveAspectRatio="xMidYMid meet">

<g transform="translate(0.000000,455.000000) scale(0.100000,-0.100000)"
fill="#000000" stroke="none">
<path d="M4703 4131 c-85 -67 -176 -183 -198 -252 -7 -21 -14 -32 -42 -63 -7
-8 -27 -45 -46 -82 -19 -38 -53 -104 -75 -147 -23 -43 -42 -86 -42 -96 0 -23
-19 -39 -84 -71 -32 -16 -66 -44 -92 -76 -35 -44 -42 -61 -48 -115 -10 -86
-24 -105 -88 -118 -119 -26 -180 -96 -184 -214 -1 -38 -4 -70 -6 -71 -2 -2
-29 -19 -60 -40 -31 -20 -82 -68 -112 -106 -31 -38 -74 -79 -97 -92 -29 -16
-42 -31 -46 -52 -4 -17 -31 -54 -67 -91 -55 -54 -68 -63 -121 -73 -32 -7 -80
-12 -107 -12 -43 0 -52 -4 -89 -42 -23 -24 -48 -53 -57 -66 -8 -12 -51 -39
-96 -60 -44 -22 -100 -55 -123 -75 -59 -49 -126 -74 -159 -58 -22 10 -33 6
-87 -25 -43 -24 -69 -48 -82 -72 -13 -25 -36 -45 -66 -60 -84 -41 -428 -155
-514 -170 -16 -2 -33 -9 -36 -14 -10 -16 -90 -30 -103 -18 -9 7 -19 5 -32 -5
-19 -14 -19 -14 1 -15 l20 -1 -20 -9 -20 -9 20 -1 c11 -1 33 -1 49 0 16 1 38
-2 50 -8 12 -5 33 -15 47 -22 15 -7 40 -13 55 -14 35 -2 56 -14 48 -27 -4 -6
-11 -6 -19 1 -9 8 -15 8 -20 0 -3 -5 -1 -10 4 -10 6 0 11 -5 11 -11 0 -6 -9
-8 -21 -4 -15 5 -19 4 -15 -4 4 -6 3 -11 -3 -11 -5 0 -13 5 -16 10 -4 6 -31 8
-66 6 -40 -3 -57 -1 -53 6 4 6 0 14 -7 19 -20 13 -29 11 -29 -6 0 -12 -12 -14
-68 -9 -37 3 -70 8 -74 11 -5 2 -8 -2 -8 -9 0 -7 -10 -1 -21 15 -20 26 -49 37
-49 17 0 -5 10 -10 22 -10 15 0 19 -3 12 -10 -7 -7 -22 -6 -47 5 -20 8 -47 15
-61 15 -13 0 -26 7 -30 15 -6 16 -36 21 -36 6 0 -5 -8 -8 -17 -6 -58 12 -143
14 -137 4 5 -8 1 -8 -14 0 -12 6 -60 9 -123 6 -66 -2 -98 -1 -89 5 12 8 10 10
-8 10 -29 0 -103 -47 -109 -69 -2 -10 -22 -26 -44 -35 -21 -10 -39 -21 -39
-25 0 -4 -8 -17 -18 -29 -45 -53 -52 -63 -52 -69 0 -3 -10 -25 -22 -49 -17
-34 -19 -46 -9 -58 18 -21 182 -91 285 -121 163 -47 578 -110 1006 -154 341
-35 413 -41 576 -47 87 -3 245 -9 349 -13 217 -8 921 2 932 13 12 12 -79 166
-152 261 -29 36 -63 94 -154 256 -28 51 -50 110 -94 254 -23 74 -39 177 -30
186 4 4 53 24 107 43 141 51 207 98 354 253 187 199 257 245 442 288 134 31
260 70 310 96 68 34 116 91 125 148 4 23 30 17 131 -30 137 -63 358 -144 490
-179 125 -32 434 -20 589 25 28 8 80 22 118 30 92 22 274 83 304 102 13 9 26
13 29 10 7 -7 219 66 273 94 41 21 61 19 61 -7 0 -8 5 -14 10 -14 6 0 5 -8 -2
-20 -13 -21 -6 -36 11 -25 6 3 11 26 11 50 0 48 -23 72 -59 60 -20 -6 -22 -1
-37 95 -3 25 -11 51 -17 58 -5 7 -7 15 -4 19 4 3 1 15 -4 26 -6 11 -12 29 -14
41 -10 92 -19 129 -35 149 -17 22 -48 120 -55 179 -2 15 -9 45 -15 66 -15 57
-30 131 -36 177 -8 55 -32 91 -73 108 -35 15 -35 15 -8 16 20 1 27 6 27 20 0
31 -18 36 -125 37 -77 1 -153 12 -330 48 -126 25 -257 55 -290 65 -33 11 -89
27 -125 36 -36 9 -148 43 -250 75 -102 33 -203 62 -225 65 -85 11 -163 13
-234 4 -49 -6 -78 -6 -85 1 -19 19 -55 10 -103 -29z m574 -102 c48 -16 104
-35 123 -40 39 -12 63 -29 40 -29 -30 0 -248 75 -264 91 -17 16 9 10 101 -22z
m-3470 -2355 c-3 -3 -12 -4 -19 -1 -8 3 -5 6 6 6 11 1 17 -2 13 -5z m109 -21
c-10 -10 -19 5 -10 18 6 11 8 11 12 0 2 -7 1 -15 -2 -18z m194 -63 c0 -6 -22
-10 -50 -10 -39 0 -50 4 -50 16 0 10 6 13 18 10 9 -3 24 -1 31 4 16 9 51 -4
51 -20z m89 -14 c-2 -2 -13 8 -23 22 l-19 27 24 -22 c12 -12 21 -24 18 -27z
m-166 -13 c-7 -2 -19 -2 -25 0 -7 3 -2 5 12 5 14 0 19 -2 13 -5z m1090 -145
c15 2 34 -4 43 -12 8 -9 21 -16 29 -16 7 0 16 -10 20 -22 4 -14 8 -18 12 -10
9 23 22 12 29 -25 6 -33 8 -35 15 -15 11 29 33 29 24 1 -5 -14 -3 -19 3 -15
15 9 42 -4 42 -20 0 -8 6 -14 13 -14 8 0 7 -4 -3 -10 -8 -5 -23 -7 -34 -4 -12
4 -16 2 -12 -5 10 -16 -5 -13 -25 5 -16 15 -17 14 -12 -5 3 -11 9 -19 13 -16
4 3 13 -1 19 -9 9 -11 7 -15 -9 -19 -11 -3 -20 -1 -20 4 0 5 -4 9 -9 9 -5 0
-7 -8 -5 -17 8 -30 -30 -45 -76 -33 -22 6 -40 15 -40 20 0 5 -31 41 -70 80
-38 39 -70 75 -70 81 0 6 4 8 9 5 5 -4 7 4 3 16 -5 21 -4 22 12 9 9 -8 16 -10
14 -5 -2 5 6 21 17 36 15 20 23 24 30 15 6 -7 22 -11 38 -9z m-527 -64 c-22
-16 -36 -18 -36 -6 0 11 43 32 50 25 3 -3 -4 -11 -14 -19z m691 0 c-3 -3 -12
-4 -19 -1 -8 3 -5 6 6 6 11 1 17 -2 13 -5z m-432 -67 c8 -18 28 -40 43 -49 15
-9 38 -29 52 -44 l25 -28 -35 24 c-19 13 -38 29 -42 35 -4 5 -8 7 -8 3 0 -4
-15 1 -32 11 -18 10 -32 22 -31 27 1 5 -3 15 -9 22 -6 7 -8 15 -4 19 3 3 6 1
6 -5 0 -7 5 -12 11 -12 6 0 9 7 5 15 -10 28 3 15 19 -18z m207 -61 c32 -32 58
-64 58 -70 -1 -10 -160 151 -160 162 0 8 40 -28 102 -92z m-131 67 c13 -16 12
-17 -3 -4 -17 13 -22 21 -14 21 2 0 10 -8 17 -17z m-91 -63 c0 -5 -4 -10 -10
-10 -5 0 -10 5 -10 10 0 6 5 10 10 10 6 0 10 -4 10 -10z m254 -120 c-6 -6
-103 102 -103 115 0 6 24 -17 53 -50 30 -33 52 -62 50 -65z m-218 95 c14 -13
13 -15 -3 -15 -15 0 -16 -2 -3 -10 12 -8 12 -10 -5 -10 -11 0 -26 4 -34 9 -12
8 -12 12 -2 25 17 20 28 20 47 1z m283 -99 c-3 -3 -11 5 -18 17 -13 21 -12 21
5 5 10 -10 16 -20 13 -22z"/>
<path d="M3310 1288 c0 -9 5 -20 10 -23 13 -8 13 5 0 25 -8 13 -10 13 -10 -2z"/>
<path d="M6780 2709 c0 -59 -34 -85 -176 -137 -66 -24 -141 -51 -169 -61 -27
-11 -99 -35 -160 -54 -60 -19 -264 -86 -453 -148 -289 -95 -345 -111 -354 -99
-8 12 -9 11 -4 -3 4 -12 2 -17 -6 -15 -7 3 -33 -5 -58 -18 -25 -12 -61 -25
-80 -29 -37 -7 -258 -77 -324 -101 -22 -9 -58 -19 -80 -24 -23 -4 -79 -18
-126 -30 -199 -51 -307 -40 -360 37 -22 33 -25 47 -27 167 -2 72 -6 146 -9
164 -9 57 -40 44 -149 -65 -171 -171 -238 -297 -239 -443 0 -159 91 -258 266
-289 106 -18 269 12 508 94 58 20 125 43 150 50 25 8 74 25 110 38 36 13 74
27 85 31 43 16 102 39 135 54 19 9 49 16 67 16 28 0 32 4 41 41 10 40 10 40
11 7 1 -31 2 -32 24 -21 25 14 175 69 196 72 8 1 16 -4 19 -12 3 -9 0 -12 -10
-9 -8 4 -21 2 -29 -3 -11 -7 -9 -9 9 -9 12 0 22 -5 22 -11 0 -6 -18 -74 -41
-152 -42 -146 -51 -176 -67 -237 -51 -189 -68 -248 -96 -330 l-31 -95 40 1
c22 1 67 7 100 13 79 14 413 36 860 56 401 17 501 26 522 47 7 8 16 41 18 74
3 32 7 91 10 129 7 94 -18 373 -51 570 -21 126 -27 199 -29 345 -2 208 -8 277
-33 368 -19 72 -32 80 -32 21z m-1389 -756 c-12 -20 -14 -14 -5 12 4 9 9 14
11 11 3 -2 0 -13 -6 -23z"/>
<path d="M5930 2470 c0 -5 5 -10 10 -10 6 0 10 5 10 10 0 6 -4 10 -10 10 -5 0
-10 -4 -10 -10z"/>
<path d="M5795 2450 c-3 -5 -1 -10 4 -10 6 0 11 5 11 10 0 6 -2 10 -4 10 -3 0
-8 -4 -11 -10z"/>
<path d="M5485 2260 c3 -5 8 -10 11 -10 2 0 4 5 4 10 0 6 -5 10 -11 10 -5 0
-7 -4 -4 -10z"/>
<path d="M1710 1621 c0 -11 26 -22 34 -14 3 3 3 10 0 14 -7 12 -34 11 -34 0z"/>
<path d="M1818 1623 c12 -2 30 -2 40 0 9 3 -1 5 -23 4 -22 0 -30 -2 -17 -4z"/>
<path d="M1865 1600 c-4 -6 9 -10 32 -9 30 0 34 2 18 9 -27 12 -43 12 -50 0z"/>
<path d="M536 1123 c-12 -12 -6 -100 10 -146 17 -52 69 -104 136 -138 76 -39
401 -156 524 -189 65 -18 128 -37 139 -43 19 -10 18 -11 -10 -19 -16 -4 -37
-10 -45 -12 -37 -8 -80 -29 -80 -38 0 -5 -4 -7 -9 -3 -8 4 -81 -26 -101 -42
-9 -8 25 -23 52 -23 14 0 28 -5 30 -12 2 -6 15 -13 29 -14 511 -60 1447 -90
2329 -74 327 6 1099 13 1715 15 1064 5 1384 12 1520 36 96 16 126 28 123 49
-2 10 9 29 25 44 20 18 27 35 27 62 0 31 -3 35 -17 29 -60 -26 -173 -37 -468
-45 -176 -5 -410 -14 -520 -20 -260 -13 -1927 -33 -2160 -25 -210 7 -694 33
-745 40 -19 3 -163 12 -320 20 -157 9 -316 20 -354 25 -39 5 -73 7 -77 4 -13
-8 -269 26 -307 41 -41 16 -254 65 -283 65 -10 0 -33 7 -51 15 -18 8 -87 31
-153 51 -491 148 -824 268 -915 328 -21 14 -41 22 -44 19z"/>
</g>
</svg>
