<svg xmlns="http://www.w3.org/2000/svg" width="1710" height="250" viewBox="0 0 1710 250" fill="none">
  <path d="M1730.4 146.947C1718.25 140.223 1239 172.802 1519.2 103.476C1528.95 98.8541 1720.84 108.23 1730.4 103.476V53.6974C1673.36 60.7816 1618.59 60.2891 1562.64 77.7153C1472.13 105.919 1376.71 82.6023 1283.69 99.0625C1230.63 108.533 1182.87 120.069 1128.32 119.898C1044 249.26 909.642 61.3498 783 77.1471C690.684 88.6446 564.338 160.736 473.185 131.15C428.577 116.678 386.847 94.2513 343.181 77.1471C262.8 0.679932 315.582 95.1227 281.4 88.7772C263.256 85.4246 206.322 43.8857 187.877 43.6963C165.979 43.4311 150.516 50.4395 127.1 45.3442C90.4719 37.3698 58.9716 6.55182 23.4421 2.46044C15.8679 1.57019 8.01898 1.02088 0 0.679932V55.6105C12.1403 56.6737 24.2189 58.8947 36.1574 62.259C55.4788 67.9415 64.2304 81.2006 79.1041 88.7772C106.222 102.548 160.21 96.1076 189.355 100.01C240.203 106.829 290.319 115.921 339.544 131.244C357.231 136.756 405.044 144.901 415.522 163.161C423.371 176.761 414.724 188.543 427.989 204.056C455.852 236.635 510.738 160.206 548.4 167.915C616.79 181.932 619.59 219.379 682.8 180.795C708.27 165.244 739.87 63.5375 783 119.898C821.172 137.178 738.898 175.672 807 249.26C868.8 256.95 826.623 160.812 848.207 158.066C936.39 147.098 1030.79 196.062 1119.36 172.802C1118.94 169.866 1120.26 164.998 1120 161.816C1166.13 149.371 1228.2 146.265 1274.05 161.816C1359.3 190.872 1449.85 219.645 1540.91 202.01C1569.18 196.536 1571.08 180.227 1592.14 168.37C1610.19 158.198 1630.08 160.376 1647.49 167.915C1675.75 180.151 1702.86 195.418 1730.32 209.7L1730.4 146.947Z" fill="url(#paint0_linear_42_272)" fill-opacity="0.1"/>
  <defs>
    <linearGradient id="paint0_linear_42_272" x1="865.2" y1="1236.35" x2="865.2" y2="-89.3304" gradientUnits="userSpaceOnUse">
      <stop stop-color="#FFFFE6"/>
      <stop offset="0.04" stop-color="#FFF2E4"/>
      <stop offset="0.19" stop-color="#FFBDDE"/>
      <stop offset="0.31" stop-color="#FF9CDA"/>
      <stop offset="0.37" stop-color="#FF90D8"/>
      <stop offset="0.41" stop-color="#F789D5"/>
      <stop offset="0.69" stop-color="#BE5AC3"/>
      <stop offset="0.89" stop-color="#9B3DB7"/>
      <stop offset="1" stop-color="#8E32B3"/>
    </linearGradient>
  </defs>
</svg>