<svg xmlns="http://www.w3.org/2000/svg" width="1728" height="224" viewBox="0 0 1728 224" fill="none">
  <path d="M1729.2 96.4481C1714.82 95.374 1700.34 93.9043 1685.73 91.9259C1627.6 83.9932 1567.27 65.848 1508.28 62.5317C1468.84 60.3083 1522.63 -11.2663 1489.27 2.4698C1489.27 60.4479 1366.26 133.473 1330.02 136.978C1293.53 140.502 1224.62 100.518 1187.76 100.292C1151.99 100.047 1141.13 126.332 1105.38 125.71C1037.61 74.2329 893.477 98.7672 785.189 110.467C666.286 151.882 609.363 77.5115 564.368 78.5855C477.908 80.6582 519.738 104.362 437.396 91.9258C298.189 70.9354 196.868 65.6031 55.8186 74.2329C35.4651 75.4765 17.373 76.2113 0 77.7564V95.0161C68.9301 99.5382 138.344 101.799 207.509 103.947C315.46 107.301 419.28 119.021 525.401 130.628C599.573 138.749 669.941 159.137 746.061 160.908C845.802 163.188 937.844 134.679 1037.61 136.564C1088.67 137.6 1026.82 258.491 1182.6 125.71C1244.39 119.266 1241.77 228.055 1302.15 223.288C1352.26 219.35 1402.98 112.144 1432.54 98.7846C1457.74 87.3849 1525.77 103.307 1549.05 110.467C1587.86 122.394 1560.02 119.888 1569.1 136.978C1578.75 155.199 1614.63 168.2 1640.66 171.893C1668.11 175.793 1706.02 176.095 1729.2 169.18V96.4481Z" fill="url(#paint0_linear_42_270)" fill-opacity="0.1"/>
  <defs>
    <linearGradient id="paint0_linear_42_270" x1="864.613" y1="1119.12" x2="864.613" y2="-199.622" gradientUnits="userSpaceOnUse">
      <stop stop-color="#FFFFE6"/>
      <stop offset="0.04" stop-color="#FFF2E4"/>
      <stop offset="0.19" stop-color="#FFBDDE"/>
      <stop offset="0.31" stop-color="#FF9CDA"/>
      <stop offset="0.37" stop-color="#FF90D8"/>
      <stop offset="0.41" stop-color="#F789D5"/>
      <stop offset="0.69" stop-color="#BE5AC3"/>
      <stop offset="0.89" stop-color="#9B3DB7"/>
      <stop offset="1" stop-color="#8E32B3"/>
    </linearGradient>
  </defs>
</svg>