<svg xmlns="http://www.w3.org/2000/svg" width="1728" height="114" viewBox="0 0 1728 114" fill="none">
  <path d="M1728 34.8912C1713.63 33.8173 1699.16 32.3477 1684.56 30.3694C1626.47 22.4374 1566.19 4.29365 1507.23 0.977666C1467.82 -1.24555 1393.23 3.29513 1359.89 17.0301C1332.98 28.1085 1337.46 39.3941 1301.25 42.8985C1264.78 46.4218 1223.77 38.9608 1186.94 38.7347C1151.19 38.4898 1115.45 39.3565 1079.73 38.7347C1009.92 37.4536 947.356 38.7347 878.552 46.9493C834.137 52.2247 789.84 62.3046 744.877 63.3785C658.477 65.451 581.482 36.4173 499.197 23.9824C360.087 2.99368 196.732 4.04876 55.7799 12.6779C35.4405 13.9214 17.361 14.6561 0 16.2011V33.4593C68.8822 37.9811 138.248 40.242 207.365 42.3899C315.241 45.7435 418.989 57.4625 525.036 69.0685C599.157 77.1889 669.476 97.5747 745.543 99.3457C845.215 101.625 937.193 73.1193 1036.89 75.0033C1087.92 76.0396 1132.07 69.3511 1181.78 64.151C1243.53 57.7074 1302.69 83.8586 1363.03 79.0918C1413.1 75.1541 1402.01 50.5856 1431.54 37.2275C1456.73 25.8288 1524.71 41.7493 1547.98 48.9088C1586.76 60.835 1558.94 58.3292 1568.02 75.4179C1577.66 93.6369 1613.51 106.637 1639.52 110.33C1666.96 114.23 1704.84 114.531 1728 107.617V34.8912Z" fill="url(#paint0_linear_42_269)" fill-opacity="0.1"/>
  <defs>
    <linearGradient id="paint0_linear_42_269" x1="864.013" y1="1057.48" x2="864.013" y2="-261.155" gradientUnits="userSpaceOnUse">
      <stop stop-color="#FFFFE6"/>
      <stop offset="0.04" stop-color="#FFF2E4"/>
      <stop offset="0.19" stop-color="#FFBDDE"/>
      <stop offset="0.31" stop-color="#FF9CDA"/>
      <stop offset="0.37" stop-color="#FF90D8"/>
      <stop offset="0.41" stop-color="#F789D5"/>
      <stop offset="0.69" stop-color="#BE5AC3"/>
      <stop offset="0.89" stop-color="#9B3DB7"/>
      <stop offset="1" stop-color="#8E32B3"/>
    </linearGradient>
  </defs>
</svg>