<svg xmlns="http://www.w3.org/2000/svg" width="1707" height="236" viewBox="0 0 1707 236" fill="none">
  <path d="M1727.4 63.9084C1705.21 65.1051 1681.5 64.6302 1668.11 65.352C1600.22 68.961 1549.99 77.6606 1490.07 95.8765C1394.86 124.824 1266.55 81.7065 1160.4 81.9724C996.019 82.3903 929.081 192.028 765 186.5C646.074 182.511 460.442 111.965 345.615 92.0776C299.024 84.0238 292.236 71.4113 258.843 54.772C213.661 32.2442 135.583 23.4117 79.5924 14.6551C52.7525 10.4763 26.2651 6.24049 0.600098 0.959961V49.5674C73.9921 54.506 166.391 47.0601 211.325 81.9724C224.666 92.3245 225.489 102.696 245.579 111.148C272.054 122.298 311.844 126.629 342.848 131.416C391.149 138.881 456.904 129.402 495.036 150.676C518.051 163.498 531.589 183.347 556.183 194.687C611.717 220.254 714.847 229.637 782.495 233.721C872.649 239.173 953.129 228.783 1039.51 215.144C1109.31 204.127 1178.98 195.58 1249.54 186.5C1284.22 182.018 1340.01 177.839 1366.35 162.301C1380.54 153.924 1379.67 141.844 1394.15 134.189C1412.03 124.692 1446.23 123.419 1468.4 120.418C1502.11 115.84 1532.8 111.224 1565.25 104.652C1591.64 99.1182 1618.3 96.7233 1644.96 97.4911C1670.38 98.3459 1699.79 102.943 1727.4 103.057V63.9084Z" fill="url(#paint0_linear_42_271)" fill-opacity="0.1"/>
  <defs>
    <linearGradient id="paint0_linear_42_271" x1="863.994" y1="1499.74" x2="863.994" y2="170.336" gradientUnits="userSpaceOnUse">
      <stop stop-color="#FFFFE6"/>
      <stop offset="0.04" stop-color="#FFF2E4"/>
      <stop offset="0.19" stop-color="#FFBDDE"/>
      <stop offset="0.31" stop-color="#FF9CDA"/>
      <stop offset="0.37" stop-color="#FF90D8"/>
      <stop offset="0.41" stop-color="#F789D5"/>
      <stop offset="0.69" stop-color="#BE5AC3"/>
      <stop offset="0.89" stop-color="#9B3DB7"/>
      <stop offset="1" stop-color="#8E32B3"/>
    </linearGradient>
  </defs>
</svg>